<svg id="svg" version="1.2" baseProfile="tiny-ps" xmlns="http://www.w3.org/2000/svg" xmlns:xlink="http://www.w3.org/1999/xlink" width="400" height="400" viewBox="0, 0, 400,400"><title>Golang Cafe</title><desc>Golang Cafe is the most loved Go job board with no recruiters and clear salary ranges</desc><g id="svgg"><path id="path0" d="M155.250 128.591 C 114.053 135.797,109.134 136.656,97.000 138.771 C 94.112 139.275,90.962 139.826,90.000 139.996 C 89.037 140.167,87.350 140.463,86.250 140.655 C 75.088 142.602,75.420 142.529,73.607 143.437 C 69.628 145.429,66.998 148.945,66.252 153.271 C 65.834 155.693,65.959 246.104,66.383 247.651 C 67.660 252.315,71.159 255.989,75.589 257.316 C 76.228 257.508,88.787 259.762,103.500 262.326 C 118.212 264.891,145.737 269.691,164.667 272.994 C 187.956 277.058,199.463 278.999,200.258 279.000 C 201.434 279.000,203.231 278.695,239.500 272.335 C 260.455 268.661,267.832 267.368,289.917 263.500 C 299.908 261.750,311.496 259.721,315.667 258.990 C 325.100 257.338,325.843 257.127,328.250 255.416 C 330.858 253.563,332.679 250.894,333.541 247.661 L 333.917 246.250 333.917 200.000 L 333.917 153.750 333.544 152.333 C 332.536 148.502,330.051 145.344,326.667 143.596 C 324.619 142.538,324.864 142.590,307.667 139.579 C 279.546 134.655,256.163 130.559,244.417 128.499 C 238.092 127.391,229.954 125.965,226.333 125.331 C 222.713 124.698,215.664 123.464,210.670 122.590 C 203.118 121.267,201.324 121.003,200.004 121.021 C 198.720 121.037,190.172 122.483,155.250 128.591 M141.417 148.685 C 149.746 149.705,154.469 154.853,154.494 162.937 C 154.511 168.409,152.049 173.744,148.814 175.244 C 146.278 176.420,142.480 176.134,140.149 174.592 C 139.267 174.008,139.293 173.931,140.966 172.236 C 146.036 167.099,147.298 160.490,143.690 157.971 C 141.392 156.367,136.859 156.480,132.781 158.243 C 114.064 166.335,99.802 206.567,113.310 213.171 C 119.802 216.345,128.051 211.330,135.134 199.903 C 135.914 198.644,138.561 193.006,138.432 192.877 C 138.400 192.845,137.239 192.932,135.851 193.071 C 124.220 194.235,121.569 193.675,121.362 190.009 C 121.261 188.221,122.595 184.956,123.302 185.260 C 124.140 185.619,125.498 185.856,127.583 186.006 C 130.753 186.233,134.790 186.053,148.331 185.076 C 156.012 184.522,157.225 184.886,157.243 187.752 L 157.250 188.770 158.333 187.664 C 160.261 185.696,161.800 184.880,164.000 184.659 C 164.688 184.590,165.695 184.370,166.239 184.171 C 172.135 182.011,177.081 186.531,177.630 194.581 L 177.750 196.339 178.833 195.711 C 180.809 194.566,183.356 191.747,185.049 188.830 C 185.290 188.416,185.832 186.916,186.254 185.497 C 186.676 184.078,188.396 178.754,190.076 173.667 C 192.892 165.141,193.585 162.848,193.949 160.844 C 194.266 159.098,198.395 158.804,199.819 160.425 C 201.505 162.346,200.915 165.384,195.918 180.500 C 190.325 197.418,189.103 202.988,190.417 205.573 C 192.357 209.390,197.398 205.028,202.249 195.333 C 202.868 194.096,203.426 193.046,203.489 193.000 C 203.552 192.954,203.874 192.429,204.205 191.833 C 205.689 189.163,207.910 186.630,209.740 185.521 C 213.918 182.989,218.675 183.662,220.366 187.026 L 220.756 187.802 221.416 186.552 C 222.866 183.809,224.934 183.208,228.667 184.446 C 229.814 184.827,229.822 184.711,228.424 188.083 C 224.564 197.395,223.341 204.008,225.221 205.401 C 229.082 208.262,238.933 194.866,239.793 185.583 L 239.917 184.250 240.917 184.047 C 247.217 182.770,248.786 184.681,246.849 191.272 C 246.583 192.176,246.452 192.775,246.558 192.601 C 250.452 186.207,257.204 182.558,262.006 184.252 C 265.534 185.497,265.675 188.537,262.648 198.083 C 260.971 203.374,260.833 204.755,261.943 205.177 C 264.191 206.031,268.749 200.685,270.850 194.728 C 272.743 189.363,276.226 185.361,280.371 183.790 C 283.083 182.763,287.012 183.075,289.056 184.481 L 289.784 184.982 290.053 184.033 C 291.055 180.502,295.642 179.337,298.813 181.808 L 299.209 182.117 298.755 183.253 C 297.863 185.483,297.343 188.652,296.252 198.500 C 294.197 217.068,292.133 225.254,287.905 231.608 C 280.939 242.078,265.517 240.372,263.481 228.906 C 263.368 228.270,263.265 227.732,263.252 227.711 C 263.238 227.689,262.670 227.788,261.989 227.930 C 255.088 229.370,244.281 229.926,220.083 230.087 C 193.001 230.268,182.788 230.614,173.000 231.683 C 160.928 233.001,153.338 235.661,151.405 239.251 C 151.005 239.993,150.966 239.987,150.260 239.062 C 146.157 233.689,147.370 225.111,152.621 222.362 C 157.509 219.802,171.020 219.157,198.583 220.166 C 200.967 220.254,204.154 220.365,205.667 220.415 C 207.179 220.464,209.242 220.540,210.250 220.584 C 211.258 220.627,213.321 220.703,214.833 220.753 C 216.346 220.803,219.571 220.914,222.000 220.999 C 245.392 221.823,264.020 221.486,264.723 220.225 C 266.507 217.025,271.156 216.234,273.111 218.797 C 274.593 220.740,274.014 224.195,272.127 224.662 C 269.481 225.316,269.314 225.466,269.315 227.198 C 269.315 230.094,270.876 231.708,273.919 231.957 C 279.228 232.392,282.948 226.432,285.494 213.417 C 285.781 211.950,286.059 210.529,286.111 210.259 C 286.205 209.783,286.178 209.795,285.202 210.676 C 279.219 216.077,271.196 213.961,269.802 206.615 C 269.546 205.267,269.576 205.269,268.750 206.541 C 263.436 214.724,253.604 215.277,253.051 207.424 C 252.875 204.924,253.427 202.060,255.324 195.620 C 257.040 189.796,257.051 189.000,255.415 189.224 C 251.431 189.770,246.824 197.123,242.921 209.167 C 241.521 213.484,241.642 213.210,241.081 213.365 C 240.807 213.441,239.908 213.521,239.083 213.543 C 235.274 213.645,234.332 212.343,234.804 207.625 C 235.048 205.183,235.128 205.253,233.827 206.762 C 227.323 214.301,219.379 214.937,217.344 208.081 L 216.959 206.786 216.367 207.907 C 212.299 215.613,202.253 214.316,201.243 205.955 L 201.127 204.992 200.189 206.371 C 196.085 212.403,189.820 215.122,185.318 212.826 C 182.562 211.419,181.633 205.958,182.942 198.851 L 183.046 198.286 182.315 198.787 C 181.231 199.531,179.567 200.340,178.267 200.756 L 177.118 201.124 176.717 202.521 C 174.150 211.451,166.486 216.323,158.943 213.819 C 152.711 211.751,150.751 203.072,154.436 193.860 C 154.852 192.820,155.143 191.920,155.082 191.860 C 154.926 191.704,149.721 191.724,147.827 191.888 L 146.238 192.026 146.047 193.225 C 145.856 194.427,145.293 196.198,142.198 205.333 C 138.061 217.545,136.469 227.084,137.932 230.895 C 138.114 231.372,133.001 232.970,130.828 233.116 C 124.997 233.507,124.205 229.966,127.756 219.375 C 128.409 217.427,128.925 215.833,128.902 215.833 C 128.879 215.833,128.461 216.177,127.972 216.597 C 122.061 221.680,114.222 223.297,107.458 220.828 C 85.623 212.859,101.343 161.095,128.833 150.442 C 133.070 148.801,137.413 148.194,141.417 148.685 M167.436 188.338 C 165.125 190.368,166.533 195.530,169.731 196.752 C 170.840 197.175,170.862 197.113,170.783 193.750 C 170.665 188.736,169.370 186.641,167.436 188.338 M214.893 189.241 C 210.627 191.097,206.766 203.789,209.752 206.138 C 211.944 207.863,214.815 204.376,217.402 196.847 C 219.216 191.566,218.003 187.888,214.893 189.241 M283.887 189.802 C 278.098 191.853,275.095 207.024,280.391 207.463 C 284.572 207.810,288.987 199.059,287.848 192.684 C 287.383 190.080,285.980 189.060,283.887 189.802 M160.443 195.614 C 159.373 199.115,159.179 203.130,159.980 205.193 C 161.200 208.336,164.970 208.853,167.351 206.204 C 168.537 204.885,170.113 201.574,169.625 201.427 C 169.511 201.392,168.892 201.239,168.250 201.088 C 164.923 200.302,162.322 198.092,161.254 195.143 L 160.893 194.145 160.443 195.614 M174.033 245.684 C 175.235 245.935,176.812 246.702,177.411 247.327 L 177.905 247.843 176.650 249.097 L 175.395 250.352 174.550 249.784 C 170.943 247.357,166.748 251.602,168.800 255.604 C 169.951 257.851,173.108 258.402,174.917 256.672 L 175.417 256.193 176.730 257.398 C 178.269 258.810,178.265 258.897,176.608 260.009 C 172.685 262.643,166.885 261.130,164.912 256.958 C 161.949 250.695,167.163 244.251,174.033 245.684 M195.934 253.315 C 197.620 257.384,199.000 260.780,199.000 260.861 C 199.000 260.943,198.047 260.989,196.882 260.963 L 194.764 260.917 194.187 259.458 L 193.610 258.000 190.916 258.000 L 188.221 258.000 187.652 259.458 L 187.083 260.917 185.042 260.963 C 183.469 261.000,183.000 260.961,183.000 260.797 C 183.001 260.616,184.637 256.655,188.445 247.620 L 189.202 245.823 191.035 245.870 L 192.867 245.917 195.934 253.315 M215.631 247.542 L 215.583 249.250 212.535 249.295 L 209.486 249.341 209.535 250.629 L 209.583 251.917 212.375 251.962 L 215.167 252.008 215.167 253.587 L 215.167 255.167 212.333 255.167 L 209.500 255.167 209.500 258.089 L 209.500 261.011 207.625 260.964 L 205.750 260.917 205.707 253.375 L 205.663 245.833 210.671 245.833 L 215.678 245.833 215.631 247.542 M233.667 247.496 L 233.667 249.159 230.458 249.205 L 227.250 249.250 227.201 250.458 L 227.152 251.667 230.243 251.667 L 233.333 251.667 233.333 253.250 L 233.333 254.833 230.250 254.833 L 227.167 254.833 227.167 256.167 L 227.167 257.500 230.589 257.500 L 234.012 257.500 233.964 259.208 L 233.917 260.917 228.708 260.961 L 223.500 261.005 223.500 253.419 L 223.500 245.833 228.583 245.833 L 233.667 245.833 233.667 247.496 M190.145 252.636 L 189.379 254.750 190.878 254.798 C 191.702 254.825,192.400 254.822,192.429 254.793 C 192.474 254.748,191.036 250.647,190.942 250.553 C 190.925 250.536,190.566 251.473,190.145 252.636 " stroke="none" fill="#040494" fill-rule="evenodd"></path><path id="path1" d="M0.000 200.000 L 0.000 400.000 200.000 400.000 L 400.000 400.000 400.000 200.000 L 400.000 0.000 200.000 0.000 L 0.000 0.000 0.000 200.000 M210.833 122.499 C 219.345 124.002,235.076 126.762,269.750 132.833 C 279.650 134.567,295.063 137.267,304.000 138.833 C 312.938 140.398,320.925 141.795,321.750 141.935 C 328.190 143.032,332.542 146.984,333.764 152.849 C 334.172 154.802,334.032 246.528,333.620 247.917 C 331.782 254.106,328.111 256.903,319.941 258.338 C 317.819 258.711,309.708 260.133,301.917 261.499 C 263.736 268.192,250.493 270.512,240.000 272.348 C 221.904 275.515,206.956 278.143,204.333 278.619 C 200.059 279.394,202.153 279.674,169.833 274.016 C 154.021 271.248,139.846 268.767,138.333 268.504 C 91.056 260.263,76.045 257.607,75.308 257.353 C 70.780 255.796,67.423 252.144,66.324 247.583 C 65.881 245.746,65.811 154.755,66.250 152.665 C 67.185 148.222,70.710 144.220,75.004 142.726 C 75.658 142.499,77.856 142.021,79.888 141.665 C 83.109 141.100,88.005 140.245,101.333 137.917 C 103.121 137.605,111.071 136.217,119.000 134.833 C 126.929 133.450,135.554 131.944,138.167 131.487 C 140.779 131.031,155.367 128.489,170.583 125.838 C 185.800 123.188,198.438 120.983,198.667 120.938 C 199.873 120.702,202.746 121.071,210.833 122.499 M134.771 148.929 C 123.042 150.753,111.643 160.740,104.100 175.801 C 97.171 189.634,95.352 204.003,99.385 213.036 C 103.940 223.239,117.683 224.921,127.904 216.527 C 128.659 215.907,129.170 215.580,129.098 215.763 C 123.103 230.935,125.197 235.679,136.135 231.707 L 137.854 231.083 137.754 230.583 C 136.574 224.629,137.854 217.850,143.069 202.432 C 144.400 198.498,145.651 194.561,145.850 193.682 C 146.049 192.803,146.258 192.035,146.314 191.975 C 146.491 191.787,152.624 191.476,153.820 191.593 C 155.491 191.758,155.490 191.757,154.797 193.278 C 150.351 203.020,152.985 212.760,160.423 214.085 C 168.064 215.447,174.614 210.511,176.831 201.719 C 176.999 201.053,177.050 201.009,177.962 200.745 C 179.287 200.362,181.212 199.451,182.202 198.741 C 183.229 198.003,183.202 197.968,182.906 199.673 C 181.694 206.637,182.891 211.853,185.965 213.004 C 190.621 214.746,196.165 212.101,200.176 206.223 L 201.146 204.802 201.248 205.443 C 201.990 210.088,203.948 212.353,207.639 212.834 C 211.054 213.279,214.278 211.458,216.181 208.011 C 217.056 206.425,217.059 206.423,217.312 207.551 C 219.004 215.114,227.219 214.368,234.399 206.000 L 235.185 205.083 235.051 206.167 C 234.325 212.028,235.070 213.424,238.917 213.409 C 241.243 213.400,241.531 213.289,241.813 212.301 C 245.542 199.230,250.941 189.955,255.297 189.141 C 257.189 188.788,257.205 189.710,255.408 195.691 C 252.217 206.305,252.385 210.737,256.035 212.341 C 260.040 214.100,265.538 211.480,268.860 206.229 C 269.569 205.108,269.545 205.099,269.898 206.625 C 271.644 214.156,279.367 215.998,285.479 210.342 C 286.358 209.529,286.350 209.530,286.227 210.208 C 283.125 227.313,278.793 233.951,272.166 231.750 C 268.696 230.597,267.928 225.467,271.131 224.832 C 273.021 224.458,273.837 223.428,273.830 221.428 C 273.813 216.935,267.994 215.785,265.219 219.726 L 264.583 220.629 263.167 220.812 C 256.449 221.677,241.719 221.775,221.833 221.086 C 217.754 220.945,210.142 220.681,204.917 220.500 C 169.759 219.281,157.862 219.711,152.750 222.385 C 148.014 224.862,146.502 231.391,149.309 237.250 C 150.278 239.273,151.021 240.055,151.259 239.304 C 151.886 237.331,156.327 234.843,161.600 233.513 C 171.569 230.997,182.903 230.284,217.435 230.000 C 244.510 229.777,252.569 229.417,260.650 228.071 C 263.523 227.592,263.398 227.558,263.573 228.872 C 264.336 234.623,268.916 238.250,275.417 238.250 C 287.799 238.249,292.950 228.196,296.254 197.583 C 297.243 188.424,298.138 183.521,299.029 182.391 C 299.130 182.263,299.025 182.090,298.715 181.871 C 295.374 179.517,291.192 180.558,290.167 183.999 L 289.818 185.172 289.284 184.772 C 283.321 180.302,273.979 185.422,270.922 194.833 C 269.308 199.803,264.875 205.333,262.507 205.333 C 260.575 205.333,260.647 204.019,262.979 196.668 C 265.556 188.548,265.214 185.259,261.691 184.270 C 256.772 182.890,250.627 186.296,246.694 192.583 C 246.067 193.586,246.048 193.468,246.570 191.833 C 247.890 187.701,247.809 185.113,246.333 184.256 C 245.628 183.846,242.326 183.775,240.895 184.139 L 240.041 184.357 239.923 185.553 C 239.005 194.886,229.126 208.321,225.203 205.573 C 223.116 204.111,224.487 197.064,228.889 186.628 L 229.643 184.840 228.530 184.486 C 224.581 183.233,222.764 183.974,220.953 187.576 L 220.705 188.068 220.343 187.226 C 219.494 185.254,217.855 184.301,215.132 184.198 C 210.886 184.037,207.591 186.303,204.513 191.500 C 204.051 192.279,203.596 193.029,203.501 193.167 C 203.405 193.304,202.842 194.375,202.249 195.547 C 197.944 204.049,193.780 208.237,191.197 206.662 C 188.609 205.084,189.589 199.186,195.251 182.250 C 200.890 165.384,201.526 162.041,199.445 160.214 C 198.055 158.993,194.000 159.456,194.000 160.835 C 194.000 161.864,193.096 164.899,190.003 174.250 C 188.275 179.475,186.584 184.688,186.245 185.833 C 184.962 190.170,182.058 193.990,178.459 196.073 C 177.515 196.619,177.553 196.685,177.447 194.333 C 177.237 189.703,175.265 185.963,172.254 184.487 C 170.633 183.693,167.596 183.638,165.833 184.372 C 165.191 184.639,164.598 184.784,164.380 184.727 C 163.135 184.402,160.427 185.734,158.558 187.592 L 157.200 188.943 157.139 187.730 C 156.986 184.705,156.331 184.578,145.167 185.402 C 131.417 186.418,125.316 186.406,123.384 185.362 C 122.663 184.973,121.182 188.748,121.436 190.330 C 121.966 193.645,125.293 194.175,137.157 192.833 C 137.930 192.746,138.586 192.698,138.615 192.726 C 139.038 193.149,134.849 200.775,132.346 204.139 C 120.846 219.592,106.520 216.701,107.964 199.220 C 109.758 177.492,127.289 154.862,140.806 156.825 C 147.549 157.805,147.424 166.663,140.580 172.784 C 139.325 173.907,139.344 174.082,140.811 174.822 C 147.506 178.202,153.393 173.790,154.347 164.677 C 155.482 153.841,147.010 147.026,134.771 148.929 M169.478 188.090 C 170.760 189.169,171.752 197.175,170.602 197.165 C 169.181 197.153,166.992 195.051,166.431 193.162 C 165.479 189.956,167.566 186.482,169.478 188.090 M217.352 189.434 C 219.153 191.160,218.605 195.280,215.786 201.210 C 211.803 209.591,206.824 207.936,209.068 198.977 C 210.823 191.970,214.989 187.171,217.352 189.434 M286.452 189.828 C 288.939 191.344,288.730 197.504,286.012 202.795 C 282.030 210.547,276.315 208.716,277.745 200.146 C 278.938 192.994,283.255 187.879,286.452 189.828 M161.314 195.021 C 162.314 197.983,165.123 200.319,168.617 201.096 L 169.867 201.374 169.763 201.895 C 169.159 204.918,166.512 207.794,164.178 207.961 C 159.708 208.280,158.020 202.833,160.342 195.583 C 160.943 193.708,160.882 193.742,161.314 195.021 M169.708 245.914 C 164.981 247.240,162.781 252.624,165.099 257.198 C 167.232 261.406,173.479 262.516,177.321 259.368 L 178.058 258.764 176.743 257.551 L 175.429 256.339 175.006 256.734 C 171.830 259.699,167.140 256.284,168.406 251.929 C 169.218 249.135,173.003 248.003,174.966 249.966 C 175.294 250.294,175.301 250.290,176.578 249.005 L 177.861 247.715 177.048 247.119 C 175.260 245.806,172.001 245.271,169.708 245.914 M186.869 251.625 C 185.573 254.719,184.174 258.059,183.761 259.047 L 183.009 260.844 185.044 260.797 L 187.080 260.750 187.582 259.376 L 188.083 258.001 190.920 258.001 L 193.757 258.000 194.269 259.375 L 194.781 260.750 196.828 260.797 C 198.723 260.840,198.869 260.822,198.795 260.547 C 198.751 260.384,197.382 257.044,195.753 253.125 L 192.792 246.000 191.008 246.000 L 189.225 246.000 186.869 251.625 M205.833 253.417 L 205.833 260.833 207.667 260.833 L 209.500 260.833 209.500 258.004 L 209.500 255.175 212.292 255.129 L 215.083 255.083 215.131 253.542 L 215.179 252.000 212.340 252.000 L 209.500 252.000 209.500 250.583 L 209.500 249.167 212.583 249.167 L 215.667 249.167 215.667 247.583 L 215.667 246.000 210.750 246.000 L 205.833 246.000 205.833 253.417 M223.500 253.417 L 223.500 260.833 228.750 260.833 L 234.000 260.833 234.000 259.250 L 234.000 257.667 230.583 257.667 L 227.167 257.667 227.167 256.167 L 227.167 254.667 230.167 254.667 L 233.167 254.667 233.167 253.250 L 233.167 251.833 230.167 251.833 L 227.167 251.833 227.167 250.500 L 227.167 249.167 230.333 249.167 L 233.500 249.167 233.500 247.583 L 233.500 246.000 228.500 246.000 L 223.500 246.000 223.500 253.417 M191.848 252.673 C 192.272 253.857,192.580 254.865,192.532 254.913 C 192.331 255.113,189.333 255.000,189.333 254.792 C 189.332 254.424,190.878 250.322,190.979 250.424 C 191.033 250.477,191.424 251.490,191.848 252.673 " stroke="none" fill="#fbfbfb" fill-rule="evenodd"></path><path id="path2" d="M150.500 152.750 C 150.811 153.071,151.103 153.333,151.149 153.333 C 151.195 153.333,150.978 153.071,150.667 152.750 C 150.356 152.429,150.064 152.167,150.018 152.167 C 149.972 152.167,150.189 152.429,150.500 152.750 M138.795 156.787 C 139.094 156.825,139.544 156.824,139.795 156.786 C 140.045 156.748,139.800 156.717,139.250 156.718 C 138.700 156.719,138.495 156.750,138.795 156.787 M140.994 172.292 L 140.083 173.250 141.042 172.339 C 141.569 171.838,142.000 171.407,142.000 171.381 C 142.000 171.257,141.841 171.401,140.994 172.292 M214.375 184.119 C 214.627 184.158,215.040 184.158,215.292 184.119 C 215.544 184.081,215.338 184.050,214.833 184.050 C 214.329 184.050,214.123 184.081,214.375 184.119 M151.708 184.948 C 151.869 184.990,152.131 184.990,152.292 184.948 C 152.452 184.906,152.321 184.872,152.000 184.872 C 151.679 184.872,151.548 184.906,151.708 184.948 M139.708 185.782 C 139.869 185.823,140.131 185.823,140.292 185.782 C 140.452 185.740,140.321 185.705,140.000 185.705 C 139.679 185.705,139.548 185.740,139.708 185.782 M133.794 186.118 C 134.001 186.158,134.301 186.156,134.460 186.115 C 134.620 186.073,134.450 186.040,134.083 186.042 C 133.717 186.044,133.586 186.078,133.794 186.118 M251.740 191.208 L 251.250 191.750 251.792 191.260 C 252.297 190.804,252.410 190.667,252.281 190.667 C 252.252 190.667,252.009 190.910,251.740 191.208 M151.796 191.622 C 152.188 191.657,152.788 191.657,153.129 191.621 C 153.471 191.585,153.150 191.557,152.417 191.557 C 151.683 191.558,151.404 191.587,151.796 191.622 M181.073 194.042 L 180.583 194.583 181.125 194.094 C 181.630 193.638,181.743 193.500,181.615 193.500 C 181.586 193.500,181.342 193.744,181.073 194.042 M177.519 195.365 C 177.509 195.887,177.556 196.348,177.625 196.391 C 177.694 196.433,177.728 196.119,177.700 195.692 C 177.622 194.475,177.540 194.328,177.519 195.365 M162.833 197.885 C 162.833 197.914,163.077 198.158,163.375 198.427 L 163.917 198.917 163.427 198.375 C 162.971 197.870,162.833 197.757,162.833 197.885 M107.875 200.250 C 107.877 200.617,107.911 200.747,107.951 200.540 C 107.991 200.332,107.990 200.032,107.948 199.873 C 107.906 199.714,107.874 199.883,107.875 200.250 M97.209 200.417 C 97.211 200.783,97.245 200.914,97.285 200.706 C 97.324 200.499,97.323 200.199,97.281 200.040 C 97.239 199.880,97.207 200.050,97.209 200.417 M107.872 202.667 C 107.872 202.987,107.906 203.119,107.948 202.958 C 107.990 202.798,107.990 202.535,107.948 202.375 C 107.906 202.215,107.872 202.346,107.872 202.667 M97.209 203.250 C 97.211 203.617,97.245 203.747,97.285 203.540 C 97.324 203.332,97.323 203.032,97.281 202.873 C 97.239 202.714,97.207 202.883,97.209 203.250 M182.387 205.333 C 182.387 205.929,182.417 206.173,182.454 205.875 C 182.491 205.577,182.491 205.090,182.454 204.792 C 182.417 204.494,182.387 204.737,182.387 205.333 M253.039 206.333 C 253.039 206.654,253.073 206.785,253.115 206.625 C 253.157 206.465,253.157 206.202,253.115 206.042 C 253.073 205.881,253.039 206.012,253.039 206.333 M271.833 211.052 C 271.833 211.081,272.077 211.325,272.375 211.594 L 272.917 212.083 272.427 211.542 C 271.971 211.037,271.833 210.923,271.833 211.052 M258.627 212.951 C 258.834 212.991,259.134 212.990,259.294 212.948 C 259.453 212.906,259.283 212.874,258.917 212.875 C 258.550 212.877,258.420 212.911,258.627 212.951 M168.288 219.954 C 168.584 219.990,169.109 219.991,169.455 219.955 C 169.800 219.919,169.558 219.889,168.917 219.888 C 168.275 219.887,167.992 219.917,168.288 219.954 M185.381 219.957 C 185.912 219.990,186.737 219.990,187.214 219.956 C 187.692 219.922,187.258 219.895,186.250 219.896 C 185.242 219.896,184.851 219.924,185.381 219.957 M192.375 220.119 C 192.627 220.158,193.040 220.158,193.292 220.119 C 193.544 220.081,193.338 220.050,192.833 220.050 C 192.329 220.050,192.123 220.081,192.375 220.119 M198.044 220.286 C 198.297 220.325,198.672 220.324,198.877 220.284 C 199.082 220.244,198.875 220.213,198.417 220.214 C 197.958 220.216,197.791 220.248,198.044 220.286 M202.958 220.451 C 203.165 220.491,203.502 220.491,203.708 220.451 C 203.915 220.411,203.746 220.379,203.333 220.379 C 202.921 220.379,202.752 220.411,202.958 220.451 M207.794 220.618 C 208.001 220.658,208.301 220.656,208.460 220.615 C 208.620 220.573,208.450 220.540,208.083 220.542 C 207.717 220.544,207.586 220.578,207.794 220.618 M212.460 220.785 C 212.668 220.824,212.968 220.823,213.127 220.781 C 213.286 220.739,213.117 220.707,212.750 220.709 C 212.383 220.711,212.253 220.745,212.460 220.785 M217.125 220.951 C 217.331 220.991,217.669 220.991,217.875 220.951 C 218.081 220.911,217.912 220.879,217.500 220.879 C 217.088 220.879,216.919 220.911,217.125 220.951 M222.044 221.120 C 222.297 221.158,222.672 221.157,222.877 221.117 C 223.082 221.078,222.875 221.046,222.417 221.048 C 221.958 221.049,221.791 221.081,222.044 221.120 M227.208 221.286 C 227.460 221.324,227.873 221.324,228.125 221.286 C 228.377 221.248,228.171 221.217,227.667 221.217 C 227.162 221.217,226.956 221.248,227.208 221.286 M233.625 221.454 C 233.923 221.491,234.410 221.491,234.708 221.454 C 235.006 221.417,234.762 221.387,234.167 221.387 C 233.571 221.387,233.327 221.417,233.625 221.454 M254.460 221.451 C 254.668 221.491,254.968 221.490,255.127 221.448 C 255.286 221.406,255.117 221.374,254.750 221.375 C 254.383 221.377,254.253 221.411,254.460 221.451 M244.875 221.623 C 245.310 221.657,246.023 221.657,246.458 221.623 C 246.894 221.588,246.537 221.560,245.667 221.560 C 244.796 221.560,244.440 221.588,244.875 221.623 M113.708 221.948 C 113.869 221.990,114.131 221.990,114.292 221.948 C 114.452 221.906,114.321 221.872,114.000 221.872 C 113.679 221.872,113.548 221.906,113.708 221.948 M125.545 228.500 C 125.545 228.912,125.578 229.081,125.618 228.875 C 125.657 228.669,125.657 228.331,125.618 228.125 C 125.578 227.919,125.545 228.088,125.545 228.500 M243.794 229.618 C 244.001 229.658,244.301 229.656,244.460 229.615 C 244.620 229.573,244.450 229.540,244.083 229.542 C 243.717 229.544,243.586 229.578,243.794 229.618 M229.708 229.956 C 230.235 229.990,231.098 229.990,231.625 229.956 C 232.152 229.923,231.721 229.896,230.667 229.896 C 229.612 229.896,229.181 229.923,229.708 229.956 M208.052 230.125 C 209.410 230.153,211.585 230.153,212.885 230.125 C 214.186 230.096,213.075 230.073,210.417 230.074 C 207.758 230.074,206.694 230.097,208.052 230.125 M196.297 230.290 C 196.782 230.324,197.532 230.323,197.964 230.289 C 198.396 230.255,198.000 230.227,197.083 230.228 C 196.167 230.228,195.813 230.256,196.297 230.290 M183.208 230.782 C 183.369 230.823,183.631 230.823,183.792 230.782 C 183.952 230.740,183.821 230.705,183.500 230.705 C 183.179 230.705,183.048 230.740,183.208 230.782 M129.708 233.119 C 129.960 233.158,130.373 233.158,130.625 233.119 C 130.877 233.081,130.671 233.050,130.167 233.050 C 129.662 233.050,129.456 233.081,129.708 233.119 M274.621 238.454 C 274.917 238.490,275.442 238.491,275.788 238.455 C 276.134 238.419,275.892 238.389,275.250 238.388 C 274.608 238.387,274.325 238.417,274.621 238.454 M171.708 245.619 C 171.960 245.658,172.373 245.658,172.625 245.619 C 172.877 245.581,172.671 245.550,172.167 245.550 C 171.662 245.550,171.456 245.581,171.708 245.619 M205.743 253.417 C 205.743 257.542,205.765 259.205,205.792 257.114 C 205.818 255.022,205.818 251.647,205.791 249.614 C 205.765 247.580,205.743 249.292,205.743 253.417 M233.561 247.583 C 233.561 248.500,233.589 248.854,233.623 248.369 C 233.657 247.885,233.656 247.135,233.622 246.703 C 233.588 246.270,233.560 246.667,233.561 247.583 M166.240 247.875 L 165.750 248.417 166.292 247.927 C 166.590 247.658,166.833 247.414,166.833 247.385 C 166.833 247.257,166.696 247.370,166.240 247.875 M176.500 249.083 C 175.817 249.771,175.296 250.333,175.342 250.333 C 175.388 250.333,175.984 249.771,176.667 249.083 C 177.350 248.396,177.871 247.833,177.825 247.833 C 177.779 247.833,177.183 248.396,176.500 249.083 M230.167 251.790 L 233.167 251.841 233.167 253.250 L 233.167 254.659 230.125 254.711 L 227.083 254.762 230.167 254.756 L 233.250 254.750 233.250 253.250 L 233.250 251.750 230.208 251.744 L 227.166 251.738 230.167 251.790 M190.917 254.833 L 189.250 254.935 190.865 254.968 C 191.799 254.986,192.524 254.930,192.583 254.833 C 192.640 254.742,192.663 254.681,192.635 254.699 C 192.607 254.717,191.833 254.777,190.917 254.833 M171.875 261.282 C 172.035 261.323,172.298 261.323,172.458 261.282 C 172.619 261.240,172.487 261.205,172.167 261.205 C 171.846 261.205,171.715 261.240,171.875 261.282 M199.795 279.121 C 200.094 279.158,200.544 279.157,200.795 279.119 C 201.045 279.081,200.800 279.051,200.250 279.052 C 199.700 279.053,199.495 279.084,199.795 279.121 " stroke="none" fill="#9697d1" fill-rule="evenodd"></path><path id="path3" d="M199.877 120.953 C 200.131 120.991,200.506 120.990,200.711 120.951 C 200.916 120.911,200.708 120.880,200.250 120.881 C 199.792 120.882,199.624 120.915,199.877 120.953 M138.208 148.619 C 138.460 148.658,138.873 148.658,139.125 148.619 C 139.377 148.581,139.171 148.550,138.667 148.550 C 138.162 148.550,137.956 148.581,138.208 148.619 M243.627 183.785 C 243.834 183.824,244.134 183.823,244.294 183.781 C 244.453 183.739,244.283 183.707,243.917 183.709 C 243.550 183.711,243.420 183.745,243.627 183.785 M166.205 191.500 C 166.205 191.821,166.240 191.952,166.282 191.792 C 166.323 191.631,166.323 191.369,166.282 191.208 C 166.240 191.048,166.205 191.179,166.205 191.500 M224.209 202.750 C 224.211 203.117,224.245 203.247,224.285 203.040 C 224.324 202.832,224.323 202.532,224.281 202.373 C 224.239 202.214,224.207 202.383,224.209 202.750 M234.714 209.417 C 234.716 209.875,234.748 210.043,234.786 209.789 C 234.825 209.536,234.824 209.161,234.784 208.956 C 234.744 208.751,234.713 208.958,234.714 209.417 M232.792 229.951 C 232.998 229.991,233.335 229.991,233.542 229.951 C 233.748 229.911,233.579 229.879,233.167 229.879 C 232.754 229.879,232.585 229.911,232.792 229.951 M228.967 257.624 C 229.912 257.654,231.412 257.654,232.301 257.624 C 233.189 257.594,232.417 257.570,230.583 257.570 C 228.750 257.570,228.023 257.595,228.967 257.624 " stroke="none" fill="#817cc8" fill-rule="evenodd"></path><path id="path4" d="M137.042 148.615 C 137.202 148.657,137.465 148.657,137.625 148.615 C 137.785 148.573,137.654 148.539,137.333 148.539 C 137.012 148.539,136.881 148.573,137.042 148.615 M139.708 148.615 C 139.869 148.657,140.131 148.657,140.292 148.615 C 140.452 148.573,140.321 148.539,140.000 148.539 C 139.679 148.539,139.548 148.573,139.708 148.615 M115.495 159.458 L 114.417 160.583 115.542 159.505 C 116.160 158.912,116.667 158.405,116.667 158.380 C 116.667 158.257,116.497 158.413,115.495 159.458 M123.995 164.458 L 122.917 165.583 124.042 164.505 C 124.660 163.912,125.167 163.405,125.167 163.380 C 125.167 163.257,124.997 163.413,123.995 164.458 M224.961 183.954 C 225.261 183.991,225.711 183.990,225.961 183.952 C 226.212 183.914,225.967 183.884,225.417 183.885 C 224.867 183.886,224.662 183.917,224.961 183.954 M258.788 183.954 C 259.084 183.990,259.609 183.991,259.955 183.955 C 260.300 183.919,260.058 183.889,259.417 183.888 C 258.775 183.887,258.492 183.917,258.788 183.954 M131.960 186.118 C 132.168 186.158,132.468 186.156,132.627 186.115 C 132.786 186.073,132.617 186.040,132.250 186.042 C 131.883 186.044,131.753 186.078,131.960 186.118 M247.552 186.917 C 247.553 187.467,247.584 187.672,247.621 187.372 C 247.658 187.072,247.657 186.622,247.619 186.372 C 247.581 186.122,247.551 186.367,247.552 186.917 M158.409 187.542 L 157.750 188.250 158.458 187.591 C 159.117 186.978,159.243 186.833,159.117 186.833 C 159.090 186.833,158.771 187.152,158.409 187.542 M218.375 193.250 C 218.377 193.617,218.411 193.747,218.451 193.540 C 218.491 193.332,218.490 193.032,218.448 192.873 C 218.406 192.714,218.374 192.883,218.375 193.250 M170.881 194.083 C 170.882 194.542,170.915 194.709,170.953 194.456 C 170.991 194.203,170.990 193.828,170.951 193.623 C 170.911 193.418,170.880 193.625,170.881 194.083 M125.877 193.620 C 126.131 193.658,126.506 193.657,126.711 193.617 C 126.916 193.578,126.708 193.546,126.250 193.548 C 125.792 193.549,125.624 193.581,125.877 193.620 M127.625 193.621 C 127.923 193.658,128.410 193.658,128.708 193.621 C 129.006 193.584,128.762 193.553,128.167 193.553 C 127.571 193.553,127.327 193.584,127.625 193.621 M159.388 201.583 C 159.389 202.225,159.419 202.467,159.455 202.121 C 159.491 201.775,159.490 201.250,159.454 200.955 C 159.417 200.659,159.387 200.942,159.388 201.583 M107.875 201.417 C 107.877 201.783,107.911 201.914,107.951 201.706 C 107.991 201.499,107.990 201.199,107.948 201.040 C 107.906 200.880,107.874 201.050,107.875 201.417 M277.548 202.750 C 277.549 203.208,277.581 203.376,277.620 203.123 C 277.658 202.869,277.657 202.494,277.617 202.289 C 277.578 202.084,277.546 202.292,277.548 202.750 M152.545 203.000 C 152.545 203.412,152.578 203.581,152.618 203.375 C 152.657 203.169,152.657 202.831,152.618 202.625 C 152.578 202.419,152.545 202.588,152.545 203.000 M208.542 202.917 C 208.544 203.283,208.578 203.414,208.618 203.206 C 208.658 202.999,208.656 202.699,208.615 202.540 C 208.573 202.380,208.540 202.550,208.542 202.917 M128.411 208.542 L 127.417 209.583 128.458 208.589 C 129.031 208.041,129.500 207.573,129.500 207.547 C 129.500 207.424,129.336 207.574,128.411 208.542 M232.573 208.042 L 232.083 208.583 232.625 208.094 C 233.130 207.638,233.243 207.500,233.115 207.500 C 233.086 207.500,232.842 207.744,232.573 208.042 M238.294 213.618 C 238.501 213.658,238.801 213.656,238.960 213.615 C 239.120 213.573,238.950 213.540,238.583 213.542 C 238.217 213.544,238.086 213.578,238.294 213.618 M162.625 214.451 C 162.831 214.491,163.169 214.491,163.375 214.451 C 163.581 214.411,163.412 214.379,163.000 214.379 C 162.587 214.379,162.419 214.411,162.625 214.451 M102.417 217.667 C 102.775 218.033,103.105 218.333,103.151 218.333 C 103.197 218.333,102.941 218.033,102.583 217.667 C 102.225 217.300,101.895 217.000,101.849 217.000 C 101.803 217.000,102.059 217.300,102.417 217.667 M269.375 217.282 C 269.535 217.323,269.798 217.323,269.958 217.282 C 270.119 217.240,269.987 217.205,269.667 217.205 C 269.346 217.205,269.215 217.240,269.375 217.282 M174.885 219.791 C 176.059 219.820,177.934 219.820,179.051 219.791 C 180.169 219.762,179.208 219.739,176.917 219.739 C 174.625 219.739,173.711 219.763,174.885 219.791 M166.960 219.951 C 167.168 219.991,167.468 219.990,167.627 219.948 C 167.786 219.906,167.617 219.874,167.250 219.875 C 166.883 219.877,166.753 219.911,166.960 219.951 M188.628 219.954 C 188.928 219.991,189.378 219.990,189.628 219.952 C 189.878 219.914,189.633 219.884,189.083 219.885 C 188.533 219.886,188.328 219.917,188.628 219.954 M194.708 220.119 C 194.960 220.158,195.373 220.158,195.625 220.119 C 195.877 220.081,195.671 220.050,195.167 220.050 C 194.662 220.050,194.456 220.081,194.708 220.119 M199.875 220.282 C 200.035 220.323,200.298 220.323,200.458 220.282 C 200.619 220.240,200.487 220.205,200.167 220.205 C 199.846 220.205,199.715 220.240,199.875 220.282 M209.125 220.618 C 209.331 220.657,209.669 220.657,209.875 220.618 C 210.081 220.578,209.912 220.545,209.500 220.545 C 209.088 220.545,208.919 220.578,209.125 220.618 M213.792 220.784 C 213.998 220.824,214.335 220.824,214.542 220.784 C 214.748 220.745,214.579 220.712,214.167 220.712 C 213.754 220.712,213.585 220.745,213.792 220.784 M229.042 221.286 C 229.294 221.324,229.706 221.324,229.958 221.286 C 230.210 221.248,230.004 221.217,229.500 221.217 C 228.996 221.217,228.790 221.248,229.042 221.286 M257.042 221.282 C 257.202 221.323,257.465 221.323,257.625 221.282 C 257.785 221.240,257.654 221.205,257.333 221.205 C 257.012 221.205,256.881 221.240,257.042 221.282 M235.963 221.456 C 236.355 221.491,236.955 221.490,237.296 221.454 C 237.637 221.419,237.317 221.390,236.583 221.390 C 235.850 221.391,235.571 221.420,235.963 221.456 M252.708 221.453 C 252.960 221.491,253.373 221.491,253.625 221.453 C 253.877 221.415,253.671 221.383,253.167 221.383 C 252.662 221.383,252.456 221.415,252.708 221.453 M248.208 229.448 C 248.369 229.490,248.631 229.490,248.792 229.448 C 248.952 229.406,248.821 229.372,248.500 229.372 C 248.179 229.372,248.048 229.406,248.208 229.448 M240.875 229.782 C 241.035 229.823,241.298 229.823,241.458 229.782 C 241.619 229.740,241.487 229.705,241.167 229.705 C 240.846 229.705,240.715 229.740,240.875 229.782 M234.463 229.956 C 234.855 229.991,235.455 229.990,235.796 229.954 C 236.137 229.919,235.817 229.890,235.083 229.890 C 234.350 229.891,234.071 229.920,234.463 229.956 M217.218 230.125 C 218.392 230.153,220.267 230.153,221.385 230.124 C 222.502 230.096,221.542 230.072,219.250 230.072 C 216.958 230.072,216.044 230.096,217.218 230.125 M199.547 230.289 C 199.985 230.324,200.660 230.323,201.047 230.288 C 201.434 230.254,201.075 230.225,200.250 230.226 C 199.425 230.226,199.109 230.255,199.547 230.289 M192.377 230.453 C 192.631 230.491,193.006 230.490,193.211 230.451 C 193.416 230.411,193.208 230.380,192.750 230.381 C 192.292 230.382,192.124 230.415,192.377 230.453 M187.625 230.618 C 187.831 230.657,188.169 230.657,188.375 230.618 C 188.581 230.578,188.412 230.545,188.000 230.545 C 187.588 230.545,187.419 230.578,187.625 230.618 M285.491 234.458 L 284.917 235.083 285.542 234.509 C 285.885 234.193,286.167 233.912,286.167 233.884 C 286.167 233.757,286.026 233.877,285.491 234.458 M152.324 237.958 L 151.750 238.583 152.375 238.009 C 152.957 237.474,153.077 237.333,152.949 237.333 C 152.922 237.333,152.640 237.615,152.324 237.958 M189.667 245.941 C 191.034 246.064,192.963 246.074,192.891 245.958 C 192.849 245.890,191.974 245.846,190.948 245.861 C 189.923 245.877,189.346 245.913,189.667 245.941 M208.125 245.958 C 209.523 245.986,211.810 245.986,213.208 245.958 C 214.606 245.930,213.463 245.907,210.667 245.907 C 207.871 245.907,206.727 245.930,208.125 245.958 M226.052 245.958 C 227.502 245.986,229.827 245.986,231.219 245.958 C 232.611 245.930,231.425 245.907,228.583 245.907 C 225.742 245.908,224.603 245.930,226.052 245.958 M210.958 249.291 C 211.806 249.321,213.194 249.321,214.042 249.291 C 214.890 249.261,214.196 249.236,212.500 249.236 C 210.804 249.236,210.110 249.261,210.958 249.291 M329.906 254.042 L 329.417 254.583 329.958 254.094 C 330.463 253.638,330.577 253.500,330.448 253.500 C 330.419 253.500,330.175 253.744,329.906 254.042 M176.833 257.552 C 176.833 257.581,177.077 257.825,177.375 258.094 L 177.917 258.583 177.427 258.042 C 176.971 257.537,176.833 257.423,176.833 257.552 M165.833 258.552 C 165.833 258.581,166.077 258.825,166.375 259.094 L 166.917 259.583 166.427 259.042 C 165.971 258.537,165.833 258.423,165.833 258.552 M194.813 260.880 C 194.885 260.952,195.875 260.989,197.014 260.963 L 199.083 260.915 196.883 260.833 C 195.672 260.787,194.741 260.809,194.813 260.880 M183.958 260.957 C 184.531 260.989,185.469 260.989,186.042 260.957 C 186.615 260.924,186.146 260.898,185.000 260.898 C 183.854 260.898,183.385 260.924,183.958 260.957 M206.708 260.956 C 207.235 260.990,208.098 260.990,208.625 260.956 C 209.152 260.923,208.721 260.896,207.667 260.896 C 206.612 260.896,206.181 260.923,206.708 260.956 M226.042 260.958 C 227.485 260.986,229.848 260.986,231.292 260.958 C 232.735 260.930,231.554 260.908,228.667 260.908 C 225.779 260.908,224.598 260.930,226.042 260.958 " stroke="none" fill="#6f74c2" fill-rule="evenodd"></path></g></svg>
